<svg id="Layer_1" xmlns="http://www.w3.org/2000/svg" viewBox="0 0 34.77 41.53">
  <defs>
    <style>
      .cls-1 {
        fill: #1b1b1b;
      }
    </style>
  </defs>
  <path class="cls-1" d="M32.8,29.6c-.3-1.5-1.5-3.38-1.58-3.45,0,0-1.05-1.28-3-.38-.07,0-1.5.68-1.73,1.8v.15l.83,1.95c0,.08.07.08.15.15.07,0,.15,0,.15-.07,0,0,.68-.75,1.73-.9.3-.07.6-.07.9,0-1.43,1.43-4.73,2.4-8.48,1.58l-.9-1.95.15-.07c.07,0,.07-.08.07-.08v-.15l-1.58-3.53c.15-.3.3-.68.3-1.05,0-1.13-.9-2.1-2.1-2.1-1.13,0-2.1.9-2.1,2.1,0,.38.07.75.3,1.05l-1.58,3.53v.15c0,.08.08.08.08.08l.15.07-.9,2.03c-3.68.75-6.83-.22-8.18-1.65h.9c1.05.23,1.73.9,1.73.9q.08.07.15.07c.08,0,.15-.07.15-.15l.83-1.95v-.15c-.22-1.13-1.65-1.8-1.73-1.8-1.95-.9-3,.38-3,.38-.08.08-1.28,1.95-1.58,3.45-.38,1.73.83,3.23,3.08,4.13,1.35.53,2.63.68,3.83.68.68,0,1.35-.07,2.03-.15l-1.58,3.6c0,.07-.75,1.5-.75,3.53,0,.08.07.15.15.15h.07q.07,0,.15-.07c1.35-1.35,1.95-2.93,1.95-2.93l2.1-4.73.9-.23c.23-.07.45-.07.6-.15.83-.15,1.58-.3,2.25-.38.68,0,1.43.15,2.25.38.23.08.45.08.6.15.22.08.38.08.6.15l2.1,4.8c0,.07.6,1.65,1.95,2.93,0,0,.07.07.15.07h.08c.07,0,.15-.07.15-.15.07-2.03-.75-3.45-.75-3.53l-1.65-3.68c.75.15,1.5.22,2.33.22,1.28,0,2.55-.22,3.83-.68,2.7-.9,3.83-2.4,3.45-4.13h0ZM29.43,28.4c-.83.15-1.43.6-1.73.83l-.68-1.65c.23-.9,1.5-1.5,1.5-1.5,1.58-.68,2.33.07,2.48.22.38.83.07,1.5-.23,2.03-.53,0-.98,0-1.35.08ZM21.4,30.2c-.15-.07-.3-.07-.45-.15-.22-.07-.45-.15-.68-.15l-.45-1.05.83-.3.75,1.65ZM20.72,28.03l-1.43.68v-.07l-1.2-2.78.08-.22c.45-.07.9-.3,1.2-.6l1.35,3ZM19.75,29.83c-.3-.07-.68-.07-.98-.15h-.83c-.68,0-1.28.08-1.95.22l.38-.83h.15c.07,0,.15-.08.15-.15l1.2-2.7,1.2,2.7c0,.07.08.15.15.15h.15l.38.75ZM17.87,21.8c.9,0,1.65.75,1.65,1.65,0,.23,0,.38-.08.53,0,.08-.07.15-.07.23-.08.07-.08.15-.15.22-.22.3-.45.45-.83.6-.07,0-.15.07-.22.07h-.6c-.07,0-.15,0-.22-.07-.3-.08-.6-.3-.83-.6-.07-.07-.07-.15-.15-.22-.07-.08-.07-.15-.07-.23-.08-.15-.08-.38-.08-.53,0-.9.75-1.65,1.65-1.65h0ZM15.02,28.03l1.35-3.08c.3.3.75.53,1.2.6h.23l-.08.22-1.2,2.78v.08l-1.5-.6ZM5.12,26.38c.15-.15.9-.9,2.48-.23,0,0,1.28.6,1.5,1.5l-.68,1.65c-.3-.3-.9-.68-1.73-.83-.45-.07-.83-.07-1.28,0-.38-.6-.68-1.28-.3-2.1h0ZM6.39,33.35c-2.1-.83-3.08-2.18-2.78-3.68.15-.75.6-1.65.9-2.33,0,.15,0,.3.07.45.08.22.15.53.38.75,0,.08.07.08.15.15s.08.15.15.15l.08.08c1.35,1.58,4.65,2.63,8.4,1.95l-1.35,3c-1.88.3-3.9.3-6-.53h0ZM13.97,33.5l-.08.22v.08l-.07.15v.08l-1.95,4.5s-.45,1.28-1.5,2.48c.07-1.65.68-2.78.68-2.85l1.73-3.9.07-.22.08-.22,1.35-3,.07-.23.08-.22.75-1.8.83.38-.45,1.13-.07.23v.07l-.08.22-1.43,2.93ZM24.85,38.16s.6,1.13.68,2.78c-1.05-1.2-1.5-2.4-1.5-2.48l-2.03-4.5,1.13.23,1.73,3.98ZM29.65,33.35c-2.18.83-4.28.75-6.23.45-.08,0-.15,0-.22-.08-.08,0-.15,0-.23-.07h-.15c-.07,0-.15,0-.22-.08-.22-.07-.45-.07-.68-.15-.07,0-.15,0-.22-.07-.08,0-.15-.08-.23-.08s-.22-.07-.3-.07c-.23-.07-.45-.07-.68-.15-.83-.22-1.58-.38-2.25-.38h-.07c-.68,0-1.43.15-2.33.38-.15,0-.22.08-.38.08-.3.07-.6.15-.83.15l1.35-3.08c.75-.22,1.43-.3,2.25-.3h.08c.6,0,1.2.08,1.88.23.07,0,.15,0,.22.07.08,0,.15.08.22.08s.23.07.3.07c.23.08.53.15.75.22.07,0,.15,0,.22.08.07,0,.15,0,.22.07,3.9.75,7.35-.3,8.7-1.88l.07-.07c.08-.08.08-.15.15-.15l.15-.15c.15-.22.3-.53.38-.75,0-.15.08-.3.08-.45.38.68.75,1.58.9,2.33.15,1.58-.9,2.93-2.93,3.75h0Z"/>
</svg>